<svg width="86" height="86" fill="none" xmlns="http://www.w3.org/2000/svg"><path d="M70.36 11.148C63.01 4.829 53.455 1 43 1 19.804 1 1 19.804 1 43c0 10.455 3.828 20.009 10.148 27.36" stroke="#70CF29" stroke-miterlimit="10"/><path d="M15.373 74.621C22.759 81.078 32.418 85 43 85c23.196 0 42-18.804 42-42 0-10.581-3.922-20.241-10.379-27.626" stroke="#3FA9F5" stroke-miterlimit="10"/><path d="M44 38h11.98l8.763-7.775L55.96 23H44v-3h-2v3H25v15h17v5H31.86l-8.764 7.755L31.88 58H42v7H32v2h23v-2H44v-7h18V43H44v-5zM27 25h28.242l6.423 5.282L55.221 36h-28.22V25zm33 20v11H32.6l-6.425-5.299L32.618 45H60z" fill="#3FA9F5"/></svg>