<svg width="86" height="86" fill="none" xmlns="http://www.w3.org/2000/svg"><path d="M70.36 11.148C63.01 4.829 53.455 1 43 1 19.804 1 1 19.804 1 43c0 10.455 3.828 20.009 10.148 27.36" stroke="#70CF29" stroke-miterlimit="10"/><path d="M15.373 74.621C22.759 81.078 32.418 85 43 85c23.196 0 42-18.804 42-42 0-10.581-3.922-20.241-10.379-27.626" stroke="#3FA9F5" stroke-miterlimit="10"/><path d="M62.471 24H24.53c-2.413 0-4.529 2.309-4.529 4.941v24.706c0 2.441 1.989 4.353 4.529 4.353H27v10.282L38.155 58H62.47c2.54 0 4.529-1.912 4.529-4.353V28.941C67 26.309 64.884 24 62.471 24zM65 53.647C65 54.988 63.913 56 62.471 56H37.374L29 63.718V56h-4.471C23.087 56 22 54.988 22 53.647V28.941C22 27.457 23.253 26 24.529 26H62.47c1.276 0 2.529 1.457 2.529 2.941v24.706H65z" fill="#3FA9F5"/><path d="M42.9 30.377c-5.99 0-10.865 4.857-10.865 10.827S36.91 52.03 42.9 52.03s10.863-4.857 10.863-10.827S48.891 30.377 42.9 30.377zM51.671 40H47.52c-.122-2.664-.638-5.243-1.527-7.06 3 1.119 5.231 3.807 5.68 7.06zm-8.77 9.883c-.844 0-2.448-2.779-2.632-7.883h5.26c-.183 5.106-1.788 7.883-2.629 7.883zM40.28 40c.23-4.932 1.792-7.608 2.62-7.608.825 0 2.39 2.678 2.617 7.608H40.28zm-.47-7.06c-.89 1.816-1.407 4.395-1.53 7.06h-4.15c.447-3.253 2.68-5.941 5.681-7.06zM34.074 42h4.194c.101 2.845.652 5.615 1.627 7.499-3.17-1.144-5.507-4.031-5.82-7.499zm11.828 7.499c.974-1.882 1.524-4.653 1.626-7.499h4.194c-.313 3.468-2.648 6.356-5.82 7.499z" fill="#3FA9F5"/></svg>