<svg width="86" height="86" fill="none" xmlns="http://www.w3.org/2000/svg"><path d="M70.36 11.148C63.01 4.829 53.455 1 43 1 19.803 1 1 19.804 1 43c0 10.455 3.828 20.009 10.148 27.36" stroke="#70CF29" stroke-miterlimit="10"/><path d="M15.373 74.621C22.759 81.078 32.418 85 43 85c23.196 0 42-18.804 42-42 0-10.581-3.922-20.241-10.379-27.626" stroke="#3FA9F5" stroke-miterlimit="10"/><path d="M65.414 41l-5-5h-3l-5-5H36V20h-6v11h-6v5h-3v5h-5.337l5.59 19H63.67l7.823-19h-6.079zM32 22h2v9h-2v-9zm-6 11h25.586l3 3H26v-3zm-3 5h36.586l3 3H23v-3zm39.33 20H22.748l-4.411-15h50.17L62.33 58z" fill="#3FA9F5"/><path d="M30 46.5c-2.206 0-4 1.794-4 4s1.794 4 4 4 4-1.794 4-4-1.794-4-4-4zm0 6c-1.103 0-2-.897-2-2s.897-2 2-2 2 .897 2 2-.897 2-2 2zm13-6c-2.206 0-4 1.794-4 4s1.794 4 4 4 4-1.794 4-4-1.794-4-4-4zm0 6c-1.103 0-2-.897-2-2s.897-2 2-2 2 .897 2 2-.897 2-2 2zm13-6c-2.206 0-4 1.794-4 4s1.794 4 4 4 4-1.794 4-4-1.794-4-4-4zm0 6c-1.103 0-2-.897-2-2s.897-2 2-2 2 .897 2 2-.897 2-2 2z" fill="#3FA9F5"/></svg>