<svg width="86" height="86" fill="none" xmlns="http://www.w3.org/2000/svg"><path d="M70.36 11.148C63.01 4.829 53.455 1 43 1 19.804 1 1 19.804 1 43c0 10.455 3.828 20.009 10.148 27.36" stroke="#70CF29" stroke-miterlimit="10"/><path d="M15.373 74.621C22.759 81.078 32.418 85 43 85c23.196 0 42-18.804 42-42 0-10.581-3.922-20.241-10.379-27.626" stroke="#3FA9F5" stroke-miterlimit="10"/><path d="M51.944 40.165c4.912 0 8.907-3.996 8.907-8.907 0-4.91-3.996-8.908-8.907-8.908-4.913 0-8.909 3.996-8.909 8.908 0 4.912 3.997 8.907 8.909 8.907zm0-15.815a6.915 6.915 0 016.907 6.908 6.915 6.915 0 01-6.907 6.907c-3.81 0-6.909-3.099-6.909-6.907 0-3.809 3.1-6.908 6.909-6.908zm.057 19.416C43.6 43.766 37 50.6 37 59v1h30v-1c0-8.4-6.599-15.234-14.999-15.234zM38.747 58c.513-6.833 6.236-12.234 13.198-12.234 6.96 0 12.684 5.402 13.196 12.234H38.747zm-8.444-13.897c4.013 0 7.278-3.265 7.278-7.279 0-4.013-3.265-7.278-7.278-7.278-4.014 0-7.28 3.265-7.28 7.278-.001 4.014 3.266 7.28 7.28 7.28zm0-12.557a5.284 5.284 0 015.278 5.278 5.285 5.285 0 01-5.278 5.28 5.285 5.285 0 01-5.28-5.28 5.284 5.284 0 015.28-5.278zM18 59v1h15v-2H20.044c.477-5.392 4.785-9.482 10.198-9.482 2.045 0 3.735.411 5.167 1.255l1.017-1.723c-1.748-1.03-3.771-1.532-6.183-1.532C23.377 46.518 18 52.001 18 59z" fill="#3FA9F5"/></svg>