<svg width="86" height="86" fill="none" xmlns="http://www.w3.org/2000/svg"><path d="M70.36 11.148C63.01 4.828 53.455 1 43 1 19.804 1 1 19.805 1 43c0 10.455 3.828 20.01 10.148 27.36" stroke="#70CF29" stroke-miterlimit="10"/><path d="M15.373 74.621c7.386 6.457 17.045 10.38 27.627 10.38 23.196 0 42-18.806 42-42 0-10.582-3.922-20.242-10.379-27.628" stroke="#3FA9F5" stroke-miterlimit="10"/><path d="M64 27c0-3.859-3.14-7-7-7H28c-3.86 0-7 3.141-7 7v34h6v4h2v-4h27v4h2v-4h6V27zM48.41 44c-.479-2.833-2.942-5-5.91-5s-5.431 2.167-5.91 5H23V28h39v16H48.41zm-2.052 0h-7.716c.447-1.721 2-3 3.858-3s3.411 1.279 3.858 3zM28 22h29a5.009 5.009 0 014.899 4H23.101A5.009 5.009 0 0128 22zm-5 37V46h39v13H23z" fill="#3FA9F5"/><path d="M30.5 48a4.505 4.505 0 00-4.5 4.5c0 2.481 2.019 4.5 4.5 4.5s4.5-2.019 4.5-4.5-2.019-4.5-4.5-4.5zm0 7a2.503 2.503 0 01-2.5-2.5c0-1.379 1.122-2.5 2.5-2.5s2.5 1.121 2.5 2.5-1.122 2.5-2.5 2.5zm24-7a4.505 4.505 0 00-4.5 4.5c0 2.481 2.019 4.5 4.5 4.5s4.5-2.019 4.5-4.5-2.019-4.5-4.5-4.5zm0 7a2.503 2.503 0 01-2.5-2.5c0-1.379 1.122-2.5 2.5-2.5s2.5 1.121 2.5 2.5-1.122 2.5-2.5 2.5z" fill="#3FA9F5"/></svg>