<svg width="86" height="86" fill="none" xmlns="http://www.w3.org/2000/svg"><path d="M70.36 11.148C63.01 4.828 53.455 1 43 1 19.804 1 1 19.805 1 43c0 10.455 3.828 20.01 10.148 27.36" stroke="#70CF29" stroke-miterlimit="10"/><path d="M15.373 74.621c7.386 6.457 17.045 10.38 27.627 10.38 23.196 0 42-18.806 42-42 0-10.582-3.922-20.242-10.379-27.628" stroke="#3FA9F5" stroke-miterlimit="10"/><path d="M60 31h-9v-2c0-2.757-2.243-5-5-5h-6c-2.757 0-5 2.243-5 5v2h-9c-2.757 0-5 2.243-5 5v19c0 2.757 2.243 5 5 5h34c2.757 0 5-2.243 5-5V36c0-2.757-2.243-5-5-5zm-23-2c0-1.654 1.346-3 3-3h6c1.654 0 3 1.346 3 3v2H37v-2zm26 26c0 1.654-1.346 3-3 3H26c-1.654 0-3-1.346-3-3V36c0-1.654 1.346-3 3-3h34c1.654 0 3 1.346 3 3v19z" fill="#3FA9F5"/></svg>