<svg width="86" height="86" fill="none" xmlns="http://www.w3.org/2000/svg"><path d="M70.36 11.148C63.01 4.828 53.455 1 43 1 19.803 1 1 19.805 1 43c0 10.455 3.828 20.01 10.148 27.36" stroke="#70CF29" stroke-miterlimit="10"/><path d="M15.373 74.621c7.386 6.457 17.045 10.38 27.627 10.38 23.196 0 42-18.806 42-42 0-10.582-3.922-20.242-10.379-27.628" stroke="#3FA9F5" stroke-miterlimit="10"/><path d="M39.877 39.075c5.11 0 9.266-4.156 9.266-9.265 0-5.11-4.156-9.264-9.266-9.264s-9.266 4.155-9.266 9.264c0 5.109 4.157 9.265 9.266 9.265zm0-16.528c4.006 0 7.266 3.259 7.266 7.264 0 4.006-3.26 7.265-7.266 7.265s-7.266-3.26-7.266-7.265 3.26-7.264 7.266-7.264zM43 58H26.032c.482-7.43 6.308-13.113 13.657-13.113 2.717 0 4.896.539 6.856 1.695l1.016-1.723c-2.281-1.346-4.782-1.973-7.872-1.973C30.891 42.886 24 49.964 24 58.999v1h19v-2zm24.729 8.018l-5.781-7.068A7.939 7.939 0 0063 55.001c0-4.411-3.59-8-8-8-4.411 0-8 3.589-8 8 0 1.437.386 2.783 1.052 3.949l-5.781 7.068a1 1 0 00-.126 1.067.974.974 0 00.915.565l3.919-.057 1.393 3.635a1 1 0 00.872.641l.062.002c.368 0 .709-.203.883-.53l4.445-8.359c.122.006.243.019.367.019s.245-.013.367-.019l4.445 8.359c.174.327.515.53.883.53l.062-.002a.998.998 0 00.872-.641l1.393-3.635 3.919.057a.962.962 0 00.915-.565.998.998 0 00-.128-1.067zm-18.276 2.445l-.857-2.236c-.15-.393-.484-.663-.948-.643l-2.468.035 4.11-5.025a8.005 8.005 0 003.272 2.023l-3.11 5.846zM49 55c0-3.309 2.69-6 6-6 3.309 0 6 2.691 6 6s-2.691 6-6 6c-3.31 0-6-2.691-6-6zm13.353 10.584a.996.996 0 00-.948.643l-.857 2.236-3.108-5.846a8.012 8.012 0 003.27-2.023l4.112 5.025-2.47-.035z" fill="#3FA9F5"/></svg>